<svg version="1.1" xmlns="http://www.w3.org/2000/svg" viewBox="0 0 2377.380952380952 953.6190476190477" width="2377.380952380952" height="953.6190476190477">
  <!-- svg-source:excalidraw -->
  
  <defs>
    <style class="style-fonts">
      @font-face {
        font-family: "Virgil";
        src: url("https://excalidraw.com/Virgil.woff2");
      }
      @font-face {
        font-family: "Cascadia";
        src: url("https://excalidraw.com/Cascadia.woff2");
      }
      @font-face {
        font-family: "Assistant";
        src: url("https://excalidraw.com/Assistant-Regular.woff2");
      }
    </style>
    
  </defs>
  <rect x="0" y="0" width="2377.380952380952" height="953.6190476190477" fill="#ffffff"></rect><g stroke-linecap="round" transform="translate(689.2142857142853 260.67857142857133) rotate(0 148.5 201.5)"><path d="M32 0 C125.58 -4.31, 215.44 -1.05, 265 0 C284.41 1.58, 295.58 9.32, 297 32 C293.29 142.13, 293.67 249.46, 297 371 C295.51 393.34, 288.36 400.77, 265 403 C183.23 404.92, 103.98 407, 32 403 C11.94 406.11, 2.74 391.97, 0 371 C1.28 290.88, -1.84 214.27, 0 32 C2.83 14.14, 12.57 1.86, 32 0" stroke="none" stroke-width="0" fill="#ffec99"></path><path d="M32 0 C101.22 1.65, 168.28 1.02, 265 0 M32 0 C97.03 -0.8, 161.35 -0.9, 265 0 M265 0 C288.19 1.55, 295.22 11.6, 297 32 M265 0 C287.45 -0.95, 297.27 10.93, 297 32 M297 32 C299.48 151.3, 300.23 270.43, 297 371 M297 32 C295.9 111.13, 295.91 190.83, 297 371 M297 371 C295.54 391.29, 287.83 403.22, 265 403 M297 371 C297.97 392.24, 284.69 401.05, 265 403 M265 403 C208.49 402.91, 154.71 402.6, 32 403 M265 403 C182.77 402.9, 99.79 401.98, 32 403 M32 403 C10.41 403.76, -0.84 392.51, 0 371 M32 403 C8.75 404.86, -1.31 393.46, 0 371 M0 371 C-1.51 245.26, -2.08 120.55, 0 32 M0 371 C-0.75 266.71, 0.46 161.36, 0 32 M0 32 C-1.42 12.4, 11.05 0.01, 32 0 M0 32 C1.44 8.78, 10.74 1.86, 32 0" stroke="#1e1e1e" stroke-width="2" fill="none"></path></g><g stroke-linecap="round" transform="translate(49.714285714285325 349.42857142857133) rotate(0 76.5 29)"><path d="M14.5 0 C57.02 -1.61, 97.43 -0.59, 138.5 0 M14.5 0 C46.16 -1.41, 79.32 -0.74, 138.5 0 M138.5 0 C148.03 -1.68, 152.6 4.45, 153 14.5 M138.5 0 C147.48 -1.64, 154.23 3.36, 153 14.5 M153 14.5 C153.82 23.12, 154.25 32.26, 153 43.5 M153 14.5 C153.06 22.78, 152.77 32.68, 153 43.5 M153 43.5 C151.33 51.17, 149.66 57.53, 138.5 58 M153 43.5 C154.63 54.25, 148.55 56.35, 138.5 58 M138.5 58 C97.42 56.52, 57.8 59.21, 14.5 58 M138.5 58 C97.39 57.68, 56.24 58.21, 14.5 58 M14.5 58 C5.36 57.04, -1.4 51.83, 0 43.5 M14.5 58 C4.29 55.77, 1.48 53.3, 0 43.5 M0 43.5 C0.16 31.77, 0.41 19.57, 0 14.5 M0 43.5 C-0.4 34.19, 1.21 26.86, 0 14.5 M0 14.5 C0.14 6.47, 5 -1.3, 14.5 0 M0 14.5 C1.1 6.78, 6.65 -0.33, 14.5 0" stroke="#1e1e1e" stroke-width="2" fill="none"></path></g><g transform="translate(83.11428724016423 365.92857142857133) rotate(0 43.099998474121094 12.5)"><text x="43.099998474121094" y="17.52" font-family="Virgil, Segoe UI Emoji" font-size="20px" fill="#1e1e1e" text-anchor="middle" style="white-space: pre;" direction="ltr" dominant-baseline="alphabetic">data.csv</text></g><g stroke-linecap="round" transform="translate(367.2142857142853 206.42857142857133) rotate(0 90.5 167)"><path d="M32 0 C64.57 4.39, 93.65 2.66, 149 0 C173.18 -1.46, 181.2 10.75, 181 32 C182.68 129.88, 179.64 221.91, 181 302 C179.1 321.75, 168.24 331.12, 149 334 C125.06 329.69, 101.42 335.15, 32 334 C10.14 336.43, 1.54 319.84, 0 302 C-1.09 224.01, 2.4 151.4, 0 32 C-2.03 12.01, 13.99 -2.26, 32 0" stroke="none" stroke-width="0" fill="#ff8787"></path><path d="M32 0 C71.15 0.49, 112.71 1.15, 149 0 M32 0 C78.71 0.65, 123.62 -0.67, 149 0 M149 0 C171.61 -0.53, 182.73 9.69, 181 32 M149 0 C172.3 -0.61, 180.68 9.71, 181 32 M181 32 C180.37 137.7, 180.95 241.85, 181 302 M181 32 C180.7 123.61, 179.71 216.54, 181 302 M181 302 C181.94 323.22, 169.24 334.52, 149 334 M181 302 C183.21 322.51, 168.88 332.34, 149 334 M149 334 C103.98 334.08, 60.63 333.79, 32 334 M149 334 C108.07 334.41, 68.12 334.54, 32 334 M32 334 C10.11 333.3, 1.12 324.8, 0 302 M32 334 C11.44 336.02, -1.79 321.32, 0 302 M0 302 C-1.55 220.65, -1.42 136.81, 0 32 M0 302 C2.09 220.22, 1.62 138.7, 0 32 M0 32 C0.65 9.55, 9.72 -1.8, 32 0 M0 32 C-0.04 11.76, 9.03 -1.58, 32 0" stroke="#1e1e1e" stroke-width="2" fill="none"></path></g><g transform="translate(375.7282859584261 348.92857142857133) rotate(0 84.34166717529297 24.84265480053768)"><text x="0" y="17.409732484216807" font-family="Virgil, Segoe UI Emoji" font-size="19.874123840430144px" fill="#1e1e1e" text-anchor="start" style="white-space: pre;" direction="ltr" dominant-baseline="alphabetic">Datos cargados </text><text x="0" y="42.25238728475449" font-family="Virgil, Segoe UI Emoji" font-size="19.874123840430144px" fill="#1e1e1e" text-anchor="start" style="white-space: pre;" direction="ltr" dominant-baseline="alphabetic">en memoria</text></g><g stroke-linecap="round"><g transform="translate(129.71428571428532 343.42857142857133) rotate(0 118.25 -45.01260159286082)"><path d="M0.73 0.55 C4.74 -13.04, -14.15 -66.94, 24.97 -81.91 C64.08 -96.88, 200.31 -88.12, 235.44 -89.29 M-0.35 -0.2 C3.51 -14.07, -15.16 -68.29, 24.52 -83.46 C64.21 -98.64, 202.59 -90, 237.78 -91.25" stroke="#1e1e1e" stroke-width="2" fill="none"></path></g><g transform="translate(129.71428571428532 343.42857142857133) rotate(0 118.25 -45.01260159286082)"><path d="M214.19 -82.97 C223.97 -84.61, 233.7 -91.08, 237.78 -91.25 M214.19 -82.97 C221.95 -85.43, 231.55 -89.46, 237.78 -91.25" stroke="#1e1e1e" stroke-width="2" fill="none"></path></g><g transform="translate(129.71428571428532 343.42857142857133) rotate(0 118.25 -45.01260159286082)"><path d="M214.39 -100.07 C224.05 -95.3, 233.7 -95.37, 237.78 -91.25 M214.39 -100.07 C221.98 -96.35, 231.5 -94.2, 237.78 -91.25" stroke="#1e1e1e" stroke-width="2" fill="none"></path></g></g><mask></mask><g transform="translate(194.71428571428532 222.42857142857133) rotate(0 40.42499923706055 12.5)"><text x="0" y="17.52" font-family="Virgil, Segoe UI Emoji" font-size="20px" fill="#1e1e1e" text-anchor="start" style="white-space: pre;" direction="ltr" dominant-baseline="alphabetic">thread 1</text></g><g stroke-linecap="round"><g transform="translate(171.71428571428532 345.42857142857133) rotate(0 96.25 -16.630899647961456)"><path d="M-0.66 0.5 C5.67 -4.44, 6.46 -24.64, 38.63 -30.09 C70.81 -35.55, 166.95 -31.49, 192.4 -32.22 M1.2 -0.28 C7.28 -4.99, 5.76 -22.98, 37.49 -28.6 C69.23 -34.23, 166 -33.12, 191.59 -34.02" stroke="#1e1e1e" stroke-width="2" fill="none"></path></g><g transform="translate(171.71428571428532 345.42857142857133) rotate(0 96.25 -16.630899647961456)"><path d="M168.21 -25.16 C177.37 -28.78, 184.67 -31.47, 191.59 -34.02 M168.21 -25.16 C178.31 -28.34, 186.33 -32.33, 191.59 -34.02" stroke="#1e1e1e" stroke-width="2" fill="none"></path></g><g transform="translate(171.71428571428532 345.42857142857133) rotate(0 96.25 -16.630899647961456)"><path d="M167.99 -42.26 C177.16 -39.82, 184.54 -36.44, 191.59 -34.02 M167.99 -42.26 C178.02 -38.82, 186.12 -36.2, 191.59 -34.02" stroke="#1e1e1e" stroke-width="2" fill="none"></path></g></g><mask></mask><g stroke-linecap="round"><g transform="translate(205.71428571428555 378.81292930663807) rotate(0 79.74999999999989 -1.5636601483514667)"><path d="M0.63 -0.32 C26.98 -0.68, 132.79 -2.57, 159.22 -3.23 M-0.5 -1.54 C25.57 -1.6, 131.65 -1.41, 158.12 -1.74" stroke="#1e1e1e" stroke-width="2" fill="none"></path></g><g transform="translate(205.71428571428555 378.81292930663807) rotate(0 79.74999999999989 -1.5636601483514667)"><path d="M134.67 6.91 C143.36 2.94, 152.89 -0.44, 158.12 -1.74 M134.67 6.91 C139.14 5.7, 144.13 4.05, 158.12 -1.74" stroke="#1e1e1e" stroke-width="2" fill="none"></path></g><g transform="translate(205.71428571428555 378.81292930663807) rotate(0 79.74999999999989 -1.5636601483514667)"><path d="M134.59 -10.19 C143.16 -7.49, 152.71 -4.2, 158.12 -1.74 M134.59 -10.19 C139.18 -7.9, 144.18 -6.05, 158.12 -1.74" stroke="#1e1e1e" stroke-width="2" fill="none"></path></g></g><mask></mask><g stroke-linecap="round"><g transform="translate(176.61672473867566 408.42857142857133) rotate(0 94.29878048780483 19)"><path d="M-0.42 0.96 C3.66 7.43, -6.51 32.97, 25.06 39.08 C56.64 45.18, 161.64 38.14, 189.04 37.61 M1.57 0.42 C5.52 6.55, -6.53 31.62, 24.62 37.52 C55.78 43.42, 160.91 35.96, 188.51 35.81" stroke="#1e1e1e" stroke-width="2" fill="none"></path></g><g transform="translate(176.61672473867566 408.42857142857133) rotate(0 94.29878048780483 19)"><path d="M165.35 45.23 C175.04 43.63, 183.34 39.46, 188.51 35.81 M165.35 45.23 C175.1 42.24, 183.08 37.37, 188.51 35.81" stroke="#1e1e1e" stroke-width="2" fill="none"></path></g><g transform="translate(176.61672473867566 408.42857142857133) rotate(0 94.29878048780483 19)"><path d="M164.71 28.14 C174.66 32.52, 183.19 34.34, 188.51 35.81 M164.71 28.14 C174.84 31.76, 183.07 33.5, 188.51 35.81" stroke="#1e1e1e" stroke-width="2" fill="none"></path></g></g><mask></mask><g stroke-linecap="round"><g transform="translate(128.24999999999955 409.8571428571428) rotate(0 116.125 44.77024242971835)"><path d="M-0.32 1.12 C3.94 16.08, -13.9 74.3, 24.9 88.86 C63.71 103.42, 197.99 88.22, 232.5 88.47 M1.71 0.66 C5.85 15.91, -14.55 75.63, 23.81 90.39 C62.17 105.16, 197.16 89.58, 231.87 89.22" stroke="#1e1e1e" stroke-width="2" fill="none"></path></g><g transform="translate(128.24999999999955 409.8571428571428) rotate(0 116.125 44.77024242971835)"><path d="M208.94 99.17 C216.46 96.35, 220.19 94.81, 231.87 89.22 M208.94 99.17 C214.68 97.79, 218.82 95.13, 231.87 89.22" stroke="#1e1e1e" stroke-width="2" fill="none"></path></g><g transform="translate(128.24999999999955 409.8571428571428) rotate(0 116.125 44.77024242971835)"><path d="M207.91 82.1 C215.55 83.44, 219.52 86.06, 231.87 89.22 M207.91 82.1 C213.83 84.31, 218.19 85.25, 231.87 89.22" stroke="#1e1e1e" stroke-width="2" fill="none"></path></g></g><mask></mask><g transform="translate(221.28928647722478 277.92857142857133) rotate(0 44.83333206176758 12.5)"><text x="0" y="17.52" font-family="Virgil, Segoe UI Emoji" font-size="20px" fill="#1e1e1e" text-anchor="start" style="white-space: pre;" direction="ltr" dominant-baseline="alphabetic">thread 2</text></g><g transform="translate(230.28928647722478 340.92857142857133) rotate(0 44.525001525878906 12.5)"><text x="0" y="17.52" font-family="Virgil, Segoe UI Emoji" font-size="20px" fill="#1e1e1e" text-anchor="start" style="white-space: pre;" direction="ltr" dominant-baseline="alphabetic">thread 3</text></g><g transform="translate(226.28928647722478 411.92857142857133) rotate(0 44.11666488647461 12.5)"><text x="0" y="17.52" font-family="Virgil, Segoe UI Emoji" font-size="20px" fill="#1e1e1e" text-anchor="start" style="white-space: pre;" direction="ltr" dominant-baseline="alphabetic">thread 4</text></g><g transform="translate(191.02619225638205 475.4999999999999) rotate(0 43.900001525878906 12.5)"><text x="0" y="17.52" font-family="Virgil, Segoe UI Emoji" font-size="20px" fill="#1e1e1e" text-anchor="start" style="white-space: pre;" direction="ltr" dominant-baseline="alphabetic">thread 5</text></g><g stroke-linecap="round"><g transform="translate(90.14951887490702 408.42857142857133) rotate(0 172.1902650011392 95.5)"><path d="M0.51 -0.47 C7.54 31.49, -15.34 168.8, 41.91 191.24 C99.17 213.68, 293.56 144.06, 344.04 134.19 M-0.68 -1.76 C6.25 29.85, -16.15 166.87, 41.15 189.24 C98.44 211.61, 292.41 141.91, 343.1 132.47" stroke="#1e1e1e" stroke-width="2" fill="none"></path></g><g transform="translate(90.14951887490702 408.42857142857133) rotate(0 172.1902650011392 95.5)"><path d="M322.64 146.83 C327.55 143.36, 334.37 138.27, 343.1 132.47 M322.64 146.83 C331.41 140.71, 339.5 136.36, 343.1 132.47" stroke="#1e1e1e" stroke-width="2" fill="none"></path></g><g transform="translate(90.14951887490702 408.42857142857133) rotate(0 172.1902650011392 95.5)"><path d="M318.19 130.32 C324.26 131.38, 332.31 130.83, 343.1 132.47 M318.19 130.32 C328.79 130.82, 338.66 133.06, 343.1 132.47" stroke="#1e1e1e" stroke-width="2" fill="none"></path></g></g><mask></mask><g transform="translate(139.81428418840642 560.9285714285713) rotate(0 45.94166564941406 12.5)"><text x="0" y="17.52" font-family="Virgil, Segoe UI Emoji" font-size="20px" fill="#1e1e1e" text-anchor="start" style="white-space: pre;" direction="ltr" dominant-baseline="alphabetic">thread ...</text></g><g stroke-linecap="round" transform="translate(726.7142857142853 399.42857142857133) rotate(0 111 34.5)"><path d="M17.25 0 C82.53 2.12, 142.13 1.97, 204.75 0 M17.25 0 C75.54 1.62, 135.27 1.55, 204.75 0 M204.75 0 C214.99 -1.18, 221.03 4.99, 222 17.25 M204.75 0 C214.09 -1.21, 223.7 6.33, 222 17.25 M222 17.25 C223.73 31.72, 222.23 44.96, 222 51.75 M222 17.25 C222.34 26.48, 222.85 37.14, 222 51.75 M222 51.75 C223.26 63.05, 214.37 68.08, 204.75 69 M222 51.75 C223.01 61.04, 215.01 68.65, 204.75 69 M204.75 69 C152.07 66.72, 99.26 67.99, 17.25 69 M204.75 69 C156.64 68.21, 111.16 69.18, 17.25 69 M17.25 69 C5.53 69, -0.56 63.28, 0 51.75 M17.25 69 C7.48 69.29, -1.23 62.31, 0 51.75 M0 51.75 C-0.96 42.33, -0.12 32.53, 0 17.25 M0 51.75 C-0.6 39.56, -0.02 27.45, 0 17.25 M0 17.25 C-0.43 5.82, 6.07 -0.82, 17.25 0 M0 17.25 C-0.11 7.37, 6.42 -2.06, 17.25 0" stroke="#1e1e1e" stroke-width="2" fill="none"></path></g><g transform="translate(751.2392872401642 421.42857142857133) rotate(0 86.4749984741211 12.5)"><text x="86.4749984741211" y="17.52" font-family="Virgil, Segoe UI Emoji" font-size="20px" fill="#1e1e1e" text-anchor="middle" style="white-space: pre;" direction="ltr" dominant-baseline="alphabetic">buildIndexInvert()</text></g><g stroke-linecap="round" transform="translate(727.2857142857138 510.21428571428567) rotate(0 111 34.5)"><path d="M17.25 0 C82.89 0.25, 148.24 0.46, 204.75 0 M17.25 0 C55.98 -0.56, 94.9 -0.41, 204.75 0 M204.75 0 C217.77 -1.59, 220.33 5.73, 222 17.25 M204.75 0 C214.37 1.58, 222.39 6.74, 222 17.25 M222 17.25 C222.01 28.55, 221.2 38.3, 222 51.75 M222 17.25 C221.32 26.07, 221.89 36, 222 51.75 M222 51.75 C220.22 63.98, 216.97 67.93, 204.75 69 M222 51.75 C220.1 64.59, 215.47 67.24, 204.75 69 M204.75 69 C139.66 68.09, 70.88 67.58, 17.25 69 M204.75 69 C157.71 71.28, 109.19 71.48, 17.25 69 M17.25 69 C5.45 69.54, -0.81 65.06, 0 51.75 M17.25 69 C6.68 67.08, -0.49 65.1, 0 51.75 M0 51.75 C0.11 39.42, 1.81 23.64, 0 17.25 M0 51.75 C0.06 43.01, -0.52 32.78, 0 17.25 M0 17.25 C0.51 4.41, 6.15 -0.64, 17.25 0 M0 17.25 C1.08 5.87, 4.91 -1.67, 17.25 0" stroke="#1e1e1e" stroke-width="2" fill="none"></path></g><g transform="translate(758.5690471104208 532.2142857142857) rotate(0 79.71666717529297 12.5)"><text x="79.71666717529297" y="17.52" font-family="Virgil, Segoe UI Emoji" font-size="20px" fill="#1e1e1e" text-anchor="middle" style="white-space: pre;" direction="ltr" dominant-baseline="alphabetic">buildBPlusTree()</text></g><g stroke-linecap="round"><g transform="translate(547.4638978127027 398.00442337099895) rotate(0 88.6251939507913 20.849135774529397)"><path d="M0.6 0.49 C30.08 7.38, 147.18 34.01, 176.78 40.99 M-0.54 -0.29 C28.75 6.77, 145.84 35.37, 175.58 42.15" stroke="#1e1e1e" stroke-width="2" fill="none"></path></g><g transform="translate(547.4638978127027 398.00442337099895) rotate(0 88.6251939507913 20.849135774529397)"><path d="M150.75 45.05 C158.77 43.3, 163.95 44.82, 175.58 42.15 M150.75 45.05 C159.93 43.88, 167.64 42.28, 175.58 42.15" stroke="#1e1e1e" stroke-width="2" fill="none"></path></g><g transform="translate(547.4638978127027 398.00442337099895) rotate(0 88.6251939507913 20.849135774529397)"><path d="M154.7 28.41 C161.53 31.5, 165.57 37.84, 175.58 42.15 M154.7 28.41 C162.36 33.15, 168.67 37.48, 175.58 42.15" stroke="#1e1e1e" stroke-width="2" fill="none"></path></g></g><mask></mask><g stroke-linecap="round"><g transform="translate(552.1639000072746 455.6147298581313) rotate(0 85.9359071392197 39.14648233978387)"><path d="M-1.1 -1.13 C27.3 11.76, 141.96 64.15, 170.98 77.57 M0.52 0.9 C29.24 13.91, 144.49 65.94, 173.22 78.73" stroke="#1e1e1e" stroke-width="2" fill="none"></path></g><g transform="translate(552.1639000072746 455.6147298581313) rotate(0 85.9359071392197 39.14648233978387)"><path d="M148.29 76.91 C155.12 76.29, 164.5 80.36, 173.22 78.73 M148.29 76.91 C157.09 77.53, 168.01 79.25, 173.22 78.73" stroke="#1e1e1e" stroke-width="2" fill="none"></path></g><g transform="translate(552.1639000072746 455.6147298581313) rotate(0 85.9359071392197 39.14648233978387)"><path d="M155.29 61.31 C159.71 66.07, 166.65 75.59, 173.22 78.73 M155.29 61.31 C161.26 68, 169.45 75.83, 173.22 78.73" stroke="#1e1e1e" stroke-width="2" fill="none"></path></g></g><mask></mask><g transform="translate(755.7142857142853 745.4285714285713) rotate(0 66.93333435058594 12.5)"><text x="0" y="17.52" font-family="Virgil, Segoe UI Emoji" font-size="20px" fill="#1e1e1e" text-anchor="start" style="white-space: pre;" direction="ltr" dominant-baseline="alphabetic">View all songs</text></g><g stroke-linecap="round" transform="translate(1649.2023809523803 140.4404761904761) rotate(0 165 308)"><path d="M32 0 C104.81 -5.11, 175.63 -3.84, 298 0 C318.86 2.09, 330.48 8.49, 330 32 C327.72 204.69, 325.81 374.34, 330 584 C332.54 602.26, 316.86 618.01, 298 616 C221.71 616.52, 140.79 617.53, 32 616 C10.55 619.52, -2.84 602.1, 0 584 C-3.55 442.07, -3.91 300.27, 0 32 C-3.24 13.92, 9.28 1.85, 32 0" stroke="none" stroke-width="0" fill="#ffec99"></path><path d="M32 0 C108.06 1.31, 185.15 -0.68, 298 0 M32 0 C131.16 1.09, 230.98 2.42, 298 0 M298 0 C320.78 1.17, 330.48 9.09, 330 32 M298 0 C318.89 0.25, 327.94 10.01, 330 32 M330 32 C330.48 244.07, 331.34 455.52, 330 584 M330 32 C332.07 233.09, 332.32 434.05, 330 584 M330 584 C328.28 607.11, 317.52 614.72, 298 616 M330 584 C330.78 603.8, 320.16 613.85, 298 616 M298 616 C214.24 617.54, 129.31 617.17, 32 616 M298 616 C240.03 617.14, 183.81 618.12, 32 616 M32 616 C11.73 616.57, -1.88 606.86, 0 584 M32 616 C10.9 614.18, -0.5 606.13, 0 584 M0 584 C0.18 457.61, 1.47 329.85, 0 32 M0 584 C-1.15 434.89, -1.65 285.92, 0 32 M0 32 C0.48 11.6, 11.88 -0.53, 32 0 M0 32 C2.21 12.7, 10.46 1.75, 32 0" stroke="#1e1e1e" stroke-width="2" fill="none"></path></g><g transform="translate(1760.9523809523803 178.1904761904761) rotate(0 60.42499923706055 12.5)"><text x="0" y="17.52" font-family="Virgil, Segoe UI Emoji" font-size="20px" fill="#1e1e1e" text-anchor="start" style="white-space: pre;" direction="ltr" dominant-baseline="alphabetic">View Playlist</text></g><g stroke-linecap="round" transform="translate(1706.9523809523803 249.6904761904761) rotate(0 111 35.125)"><path d="M17.56 0 C85.4 1.01, 153.69 -1.86, 204.44 0 M17.56 0 C79.21 1, 138.84 0.5, 204.44 0 M204.44 0 C214.79 -0.26, 222.9 4.43, 222 17.56 M204.44 0 C215.06 -2.1, 221.7 7.08, 222 17.56 M222 17.56 C222.69 29.01, 220.26 41.98, 222 52.69 M222 17.56 C222.37 30.22, 221.5 42.28, 222 52.69 M222 52.69 C223.41 66.13, 217.6 69.45, 204.44 70.25 M222 52.69 C222.92 62.36, 216.64 69.4, 204.44 70.25 M204.44 70.25 C137.77 72.88, 70.57 71.25, 17.56 70.25 M204.44 70.25 C167.98 68.92, 129.99 68.48, 17.56 70.25 M17.56 70.25 C7.47 71.58, 1.1 64.64, 0 52.69 M17.56 70.25 C5.81 71.28, -1.27 65.91, 0 52.69 M0 52.69 C0.12 39.79, -1.13 31.07, 0 17.56 M0 52.69 C-0.69 44.77, 0.64 37.45, 0 17.56 M0 17.56 C0.75 5.84, 5.14 1.19, 17.56 0 M0 17.56 C-1.8 3.85, 8.04 0.58, 17.56 0" stroke="#1e1e1e" stroke-width="2" fill="none"></path></g><g transform="translate(1737.7357137770873 272.3154761904761) rotate(0 80.21666717529297 12.5)"><text x="80.21666717529297" y="17.52" font-family="Virgil, Segoe UI Emoji" font-size="20px" fill="#1e1e1e" text-anchor="middle" style="white-space: pre;" direction="ltr" dominant-baseline="alphabetic">buildLInkedList()</text></g><g stroke-linecap="round" transform="translate(1703.9523809523803 376.6904761904761) rotate(0 111 34.5)"><path d="M17.25 0 C72.32 -0.23, 125.36 -0.3, 204.75 0 M17.25 0 C87.74 -1.42, 156.82 -1.98, 204.75 0 M204.75 0 C214.67 -1.53, 221.6 4.72, 222 17.25 M204.75 0 C213.99 -1.28, 223.68 7.25, 222 17.25 M222 17.25 C220.33 27.76, 223.27 36.15, 222 51.75 M222 17.25 C221.36 29.8, 221.81 40.36, 222 51.75 M222 51.75 C221.51 62.6, 214.7 67.07, 204.75 69 M222 51.75 C220.18 62.78, 217.85 71.27, 204.75 69 M204.75 69 C145.51 70.87, 87.78 70.67, 17.25 69 M204.75 69 C140.73 68.26, 77.69 68.73, 17.25 69 M17.25 69 C6.31 69.45, 0.14 64.45, 0 51.75 M17.25 69 C7.31 68.64, -2.19 61.29, 0 51.75 M0 51.75 C-0.44 44.11, -1.79 38.67, 0 17.25 M0 51.75 C-0.91 43.43, -0.06 34.95, 0 17.25 M0 17.25 C0.97 6.91, 5.68 1.33, 17.25 0 M0 17.25 C-1.69 3.69, 3.71 2.08, 17.25 0" stroke="#1e1e1e" stroke-width="2" fill="none"></path></g><g transform="translate(1740.3523824782592 398.6904761904761) rotate(0 74.5999984741211 12.5)"><text x="74.5999984741211" y="17.52" font-family="Virgil, Segoe UI Emoji" font-size="20px" fill="#1e1e1e" text-anchor="middle" style="white-space: pre;" direction="ltr" dominant-baseline="alphabetic">buildArrayList()</text></g><g stroke-linecap="round" transform="translate(1707.9523809523803 508.6904761904761) rotate(0 111 34.5)"><path d="M17.25 0 C55.73 1.42, 91.49 1.02, 204.75 0 M17.25 0 C74.67 -0.94, 131.6 -1.64, 204.75 0 M204.75 0 C214.46 -1.77, 223.81 5.34, 222 17.25 M204.75 0 C218.21 -0.65, 222.99 3.54, 222 17.25 M222 17.25 C221.42 24.86, 222.65 35.05, 222 51.75 M222 17.25 C221.99 24.72, 220.7 31.22, 222 51.75 M222 51.75 C223.61 61.62, 214.5 67.62, 204.75 69 M222 51.75 C222.51 61.33, 218.49 67, 204.75 69 M204.75 69 C151.2 70.29, 100.3 70.59, 17.25 69 M204.75 69 C163.43 66.77, 123.6 66.94, 17.25 69 M17.25 69 C6.43 68.1, -1.46 65.1, 0 51.75 M17.25 69 C4.26 67.39, 1.24 63.55, 0 51.75 M0 51.75 C1.32 39.67, 0.92 27, 0 17.25 M0 51.75 C-0.26 44.09, 0.32 36.61, 0 17.25 M0 17.25 C1.51 6.79, 5.42 -1.98, 17.25 0 M0 17.25 C-1.3 7.66, 3.95 0.85, 17.25 0" stroke="#1e1e1e" stroke-width="2" fill="none"></path></g><g transform="translate(1732.4773824782592 530.6904761904761) rotate(0 86.4749984741211 12.5)"><text x="86.4749984741211" y="17.52" font-family="Virgil, Segoe UI Emoji" font-size="20px" fill="#1e1e1e" text-anchor="middle" style="white-space: pre;" direction="ltr" dominant-baseline="alphabetic">buildIndexInvert()</text></g><g stroke-linecap="round" transform="translate(1704.9523809523803 640.6904761904761) rotate(0 111 34.5)"><path d="M17.25 0 C84.44 0.18, 153.23 0.01, 204.75 0 M17.25 0 C68.38 -0.11, 119.09 -0.92, 204.75 0 M204.75 0 C216.68 -0.07, 222.56 5.09, 222 17.25 M204.75 0 C216.91 2.01, 222.5 7.24, 222 17.25 M222 17.25 C221.05 28.3, 223.12 40.82, 222 51.75 M222 17.25 C222.88 28.52, 222.23 39.86, 222 51.75 M222 51.75 C221.13 65.01, 216.42 67.69, 204.75 69 M222 51.75 C223.26 62.22, 216.96 69.79, 204.75 69 M204.75 69 C165.13 70.8, 121.83 69.95, 17.25 69 M204.75 69 C145.35 69.99, 86.78 70.76, 17.25 69 M17.25 69 C6.87 69.43, 0.08 62.99, 0 51.75 M17.25 69 C5.46 69.34, -1.25 62.08, 0 51.75 M0 51.75 C1.52 44, -0.55 34.72, 0 17.25 M0 51.75 C-0.74 39.94, -0.8 29.45, 0 17.25 M0 17.25 C-0.14 4.98, 6.85 0.46, 17.25 0 M0 17.25 C1.32 6.35, 3.65 1.38, 17.25 0" stroke="#1e1e1e" stroke-width="2" fill="none"></path></g><g transform="translate(1736.2357137770873 662.6904761904761) rotate(0 79.71666717529297 12.5)"><text x="79.71666717529297" y="17.52" font-family="Virgil, Segoe UI Emoji" font-size="20px" fill="#1e1e1e" text-anchor="middle" style="white-space: pre;" direction="ltr" dominant-baseline="alphabetic">buildBPlusTree()</text></g><g stroke-linecap="round"><g transform="translate(954.571428571428 344.566697630574) rotate(0 375.69047619047615 -38.743146252756546)"><path d="M0.38 -0.64 C56.93 -6.12, 213.77 -19.34, 338.75 -31.96 C463.72 -44.58, 681.46 -68.69, 750.25 -76.38 M-0.88 1.64 C55.56 -3.7, 212.19 -17.09, 337.77 -30.38 C463.34 -43.68, 683.54 -70.31, 752.56 -78.14" stroke="#1e1e1e" stroke-width="2" fill="none"></path></g><g transform="translate(954.571428571428 344.566697630574) rotate(0 375.69047619047615 -38.743146252756546)"><path d="M730.22 -66.92 C734.72 -69.93, 741.57 -74.54, 752.56 -78.14 M730.22 -66.92 C739.32 -71.34, 747.39 -76.15, 752.56 -78.14" stroke="#1e1e1e" stroke-width="2" fill="none"></path></g><g transform="translate(954.571428571428 344.566697630574) rotate(0 375.69047619047615 -38.743146252756546)"><path d="M728.23 -83.91 C733.36 -82.62, 740.71 -82.94, 752.56 -78.14 M728.23 -83.91 C738.14 -81.65, 746.98 -79.8, 752.56 -78.14" stroke="#1e1e1e" stroke-width="2" fill="none"></path></g></g><mask></mask><g stroke-linecap="round"><g transform="translate(1513.4178134201602 293.4347320465504) rotate(0 95.23394867723823 61.418877666509445)"><path d="M-1.18 -0.84 C30.42 19.87, 158.19 102.45, 190.23 123.14 M0.41 1.34 C31.77 21.76, 157.46 101.2, 189.15 121.18" stroke="#1e1e1e" stroke-width="2" fill="none"></path></g><g transform="translate(1513.4178134201602 293.4347320465504) rotate(0 95.23394867723823 61.418877666509445)"><path d="M164.73 115.86 C171.92 117.58, 182.46 120.81, 189.15 121.18 M164.73 115.86 C173.14 117.8, 180.54 119.67, 189.15 121.18" stroke="#1e1e1e" stroke-width="2" fill="none"></path></g><g transform="translate(1513.4178134201602 293.4347320465504) rotate(0 95.23394867723823 61.418877666509445)"><path d="M173.86 101.4 C177.7 108.15, 185 116.49, 189.15 121.18 M173.86 101.4 C179.25 108.21, 183.56 115, 189.15 121.18" stroke="#1e1e1e" stroke-width="2" fill="none"></path></g></g><mask></mask><g stroke-linecap="round" transform="translate(725.7142857142853 300.92857142857133) rotate(0 111 34.5)"><path d="M17.25 0 C73.53 0, 127.57 0.37, 204.75 0 M17.25 0 C71.1 0.1, 126.46 1.85, 204.75 0 M204.75 0 C217.22 0.94, 220.92 5.57, 222 17.25 M204.75 0 C214.9 0.04, 223.73 7.76, 222 17.25 M222 17.25 C222.92 28.19, 222.86 35.82, 222 51.75 M222 17.25 C221.41 29.39, 222.37 41.64, 222 51.75 M222 51.75 C220.27 61.4, 217.2 67.69, 204.75 69 M222 51.75 C221.22 61.78, 214.49 69.37, 204.75 69 M204.75 69 C160.32 67.41, 117.94 67.42, 17.25 69 M204.75 69 C144.99 68.38, 83.22 67.63, 17.25 69 M17.25 69 C4.86 68.1, -1.85 62.53, 0 51.75 M17.25 69 C5.86 67.83, -2.27 65.04, 0 51.75 M0 51.75 C1.01 37.92, -0.14 27.99, 0 17.25 M0 51.75 C0.15 43.34, -0.37 33.24, 0 17.25 M0 17.25 C-1.29 6.07, 4.88 -0.85, 17.25 0 M0 17.25 C2.04 7.91, 7.3 -1.81, 17.25 0" stroke="#1e1e1e" stroke-width="2" fill="none"></path></g><g transform="translate(771.3892887660431 322.92857142857133) rotate(0 65.32499694824219 12.5)"><text x="65.32499694824219" y="17.52" font-family="Virgil, Segoe UI Emoji" font-size="20px" fill="#1e1e1e" text-anchor="middle" style="white-space: pre;" direction="ltr" dominant-baseline="alphabetic">buildPlaylist()</text></g><g stroke-linecap="round"><g transform="translate(724.7142857142853 325.70021018329595) rotate(0 -88.25370875026306 11.210685408798213)"><path d="M0.11 0.64 C-29.26 4.54, -146.58 19.19, -175.9 22.92 M-1.29 -0.08 C-30.8 3.52, -147.37 17.55, -176.53 21.06" stroke="#1e1e1e" stroke-width="2" fill="none"></path></g><g transform="translate(724.7142857142853 325.70021018329595) rotate(0 -88.25370875026306 11.210685408798213)"><path d="M-154.23 9.76 C-160.57 14.52, -168.15 18.4, -176.53 21.06 M-154.23 9.76 C-162.01 14.61, -169.52 16.71, -176.53 21.06" stroke="#1e1e1e" stroke-width="2" fill="none"></path></g><g transform="translate(724.7142857142853 325.70021018329595) rotate(0 -88.25370875026306 11.210685408798213)"><path d="M-152.18 26.74 C-159.12 25.91, -167.37 24.19, -176.53 21.06 M-152.18 26.74 C-160.65 25.65, -168.88 21.82, -176.53 21.06" stroke="#1e1e1e" stroke-width="2" fill="none"></path></g></g><mask></mask><g stroke-linecap="round"><g transform="translate(549.1526006479451 365.21199920603976) rotate(0 87.78084253317013 -9.466276112538992)"><path d="M1.11 0.04 C30.32 -3.21, 146.92 -15.39, 176.15 -18.64 M0.23 -0.99 C29.26 -4.69, 146.18 -17.71, 175.51 -20.6" stroke="#1e1e1e" stroke-width="2" fill="none"></path></g><g transform="translate(549.1526006479451 365.21199920603976) rotate(0 87.78084253317013 -9.466276112538992)"><path d="M153.05 -9.62 C161.47 -12.98, 170.34 -16.57, 175.51 -20.6 M153.05 -9.62 C158.79 -13.39, 165.21 -14.5, 175.51 -20.6" stroke="#1e1e1e" stroke-width="2" fill="none"></path></g><g transform="translate(549.1526006479451 365.21199920603976) rotate(0 87.78084253317013 -9.466276112538992)"><path d="M151.24 -26.62 C160.46 -23.61, 170.01 -20.82, 175.51 -20.6 M151.24 -26.62 C157.48 -25.97, 164.37 -22.67, 175.51 -20.6" stroke="#1e1e1e" stroke-width="2" fill="none"></path></g></g><mask></mask><g stroke-linecap="round"><g transform="translate(948.7142857142853 431.42857142857133) rotate(0 32.5 -0.5)"><path d="M-0.88 0.88 C9.98 0.56, 54.14 -0.83, 65.08 -1.15 M0.86 0.29 C11.58 0.1, 53.67 0.32, 64.18 0.31" stroke="#1e1e1e" stroke-width="2" fill="none"></path></g></g><mask></mask><g stroke-linecap="round"><g transform="translate(947.5414989344238 547.2793215933508) rotate(0 32.5 0)"><path d="M1.11 0.66 C12.21 0.91, 55.35 0.45, 66.08 0.48 M0.24 -0.05 C11.31 -0.06, 54.91 -1.22, 65.69 -1.39" stroke="#1e1e1e" stroke-width="2" fill="none"></path></g></g><mask></mask><g stroke-linecap="round" transform="translate(1013.6628664614343 407.35575257384187) rotate(359.01223960036015 119.0514192528509 26.07281885472945)"><path d="M103.57 -0.72 C118.41 -1.68, 137.24 -0.31, 152.8 0.95 C168.36 2.21, 184.75 4.37, 196.93 6.82 C209.11 9.27, 219.19 12.38, 225.89 15.63 C232.58 18.88, 236.53 22.94, 237.08 26.29 C237.63 29.64, 235.3 32.48, 229.19 35.74 C223.08 38.99, 212.1 43.24, 200.43 45.83 C188.75 48.41, 174.4 50.16, 159.16 51.26 C143.93 52.36, 125.13 52.78, 109.02 52.44 C92.9 52.11, 76.42 51.04, 62.48 49.24 C48.54 47.44, 35.4 44.65, 25.38 41.64 C15.35 38.63, 6.3 34.56, 2.33 31.2 C-1.65 27.84, -1.59 24.8, 1.54 21.5 C4.67 18.19, 11.89 14.42, 21.09 11.38 C30.29 8.34, 41.6 5.12, 56.76 3.27 C71.93 1.41, 101.48 0.65, 112.07 0.24 C122.66 -0.18, 120.33 0.22, 120.29 0.78 M78.91 2.03 C92.84 0.49, 112.37 1.11, 128.56 1.15 C144.76 1.19, 162.06 0.94, 176.1 2.26 C190.14 3.58, 203.03 6.02, 212.8 9.07 C222.57 12.11, 230.9 17.14, 234.72 20.53 C238.54 23.92, 238.75 26.1, 235.7 29.42 C232.64 32.74, 225.31 37.36, 216.39 40.47 C207.46 43.57, 196.06 46.24, 182.16 48.05 C168.26 49.87, 149.31 51.04, 132.97 51.36 C116.63 51.68, 99.57 50.72, 84.12 49.96 C68.68 49.2, 52.16 48.88, 40.3 46.8 C28.44 44.72, 19.61 40.61, 12.97 37.49 C6.34 34.36, 1.14 31.79, 0.48 28.03 C-0.18 24.28, 2.98 18.66, 9.02 14.95 C15.06 11.24, 24.75 7.91, 36.71 5.78 C48.67 3.65, 73.48 2.91, 80.75 2.16 C88.02 1.41, 80 1.06, 80.34 1.26" stroke="#1e1e1e" stroke-width="2" fill="none"></path></g><g stroke-linecap="round" transform="translate(1013.7142857142853 518.8571428571428) rotate(0 140.5 29)"><path d="M202.25 2.85 C217.8 4.08, 232.93 7.06, 244.44 9.65 C255.94 12.25, 265.29 15.36, 271.28 18.43 C277.27 21.51, 280.27 24.58, 280.36 28.12 C280.45 31.66, 277.81 36.22, 271.83 39.68 C265.85 43.15, 255.71 46.49, 244.5 48.91 C233.29 51.33, 219.47 52.8, 204.57 54.2 C189.67 55.61, 171.84 56.84, 155.08 57.32 C138.33 57.8, 120.32 57.97, 104.04 57.1 C87.77 56.23, 71.24 54.25, 57.44 52.11 C43.63 49.96, 30.4 47.05, 21.21 44.21 C12.02 41.37, 5.35 38.51, 2.31 35.09 C-0.73 31.68, -0.03 27.11, 2.95 23.71 C5.94 20.3, 11.55 17.67, 20.2 14.67 C28.85 11.66, 41.27 7.8, 54.83 5.68 C68.4 3.55, 85.28 2.95, 101.6 1.93 C117.93 0.9, 134.57 -0.63, 152.77 -0.46 C170.97 -0.29, 200.1 1.85, 210.8 2.95 C221.51 4.05, 218.33 5.62, 217.01 6.13 M105.31 0.71 C120.27 -0.68, 140.09 -0.5, 156.85 -0.18 C173.62 0.14, 191.15 1.2, 205.9 2.64 C220.65 4.09, 234.11 5.96, 245.34 8.51 C256.58 11.07, 267.31 14.43, 273.3 17.98 C279.29 21.53, 281.74 26.22, 281.26 29.81 C280.79 33.39, 276.94 36.41, 270.47 39.49 C263.99 42.57, 254.23 45.57, 242.42 48.29 C230.62 51.01, 214.96 54.36, 199.63 55.82 C184.3 57.27, 167.02 57.05, 150.45 57.03 C133.89 57.01, 116.51 56.48, 100.24 55.7 C83.96 54.92, 66.28 54.54, 52.8 52.35 C39.33 50.16, 27.82 45.5, 19.39 42.57 C10.95 39.64, 4.82 37.8, 2.21 34.79 C-0.4 31.78, 0.31 28.31, 3.74 24.49 C7.16 20.68, 13.67 14.96, 22.76 11.9 C31.86 8.84, 44.37 7.97, 58.3 6.12 C72.24 4.28, 98.63 1.72, 106.36 0.85 C114.08 -0.02, 104.45 0.41, 104.64 0.9" stroke="#1e1e1e" stroke-width="2" fill="none"></path></g><g transform="translate(1036.7142857142853 535.8571428571428) rotate(0 122.08333587646484 12.5)"><text x="0" y="17.52" font-family="Virgil, Segoe UI Emoji" font-size="20px" fill="#1e1e1e" text-anchor="start" style="white-space: pre;" direction="ltr" dominant-baseline="alphabetic">SortBy(Comparator item)</text></g><g transform="translate(1042.9642857142853 418.92857142857133) rotate(0 93.55833435058594 12.5)"><text x="0" y="17.52" font-family="Virgil, Segoe UI Emoji" font-size="20px" fill="#1e1e1e" text-anchor="start" style="white-space: pre;" direction="ltr" dominant-baseline="alphabetic">Search(String song)</text></g><g stroke-linecap="round" transform="translate(2011.4523809523803 261.1904761904761) rotate(0 147.5 25.5)"><path d="M216.87 2.54 C232.71 3.53, 246.81 7.12, 258.48 9.53 C270.15 11.93, 280.77 14.19, 286.9 16.97 C293.02 19.76, 295.67 23.27, 295.23 26.25 C294.78 29.23, 291.03 32.03, 284.23 34.86 C277.43 37.68, 267 40.95, 254.4 43.2 C241.81 45.45, 224.78 47.09, 208.65 48.36 C192.53 49.62, 175.11 50.5, 157.67 50.78 C140.24 51.07, 121.12 50.94, 104.03 50.04 C86.95 49.15, 69.29 47.51, 55.14 45.42 C40.99 43.33, 28.01 40.28, 19.15 37.49 C10.3 34.7, 4.59 31.48, 2.02 28.67 C-0.55 25.85, 0.08 23.6, 3.73 20.61 C7.38 17.62, 14.08 13.23, 23.92 10.71 C33.76 8.2, 48.2 7.11, 62.77 5.49 C77.34 3.88, 94.27 1.87, 111.32 1.03 C128.36 0.2, 147 0.18, 165.04 0.46 C183.09 0.75, 210.08 2.15, 219.58 2.75 C229.09 3.34, 223.11 3.51, 222.06 4.03 M176.57 -0.7 C193.31 -0.5, 211.85 3.33, 226.91 5.37 C241.98 7.41, 256.39 9.13, 266.97 11.55 C277.54 13.97, 285.85 16.93, 290.38 19.88 C294.91 22.82, 296.15 26.14, 294.14 29.2 C292.14 32.26, 286.67 35.75, 278.35 38.22 C270.03 40.69, 257.43 42.37, 244.23 44 C231.04 45.62, 215.71 46.73, 199.19 47.98 C182.68 49.23, 163.01 51.21, 145.14 51.51 C127.27 51.81, 108.58 50.82, 91.99 49.75 C75.41 48.69, 58.41 47.56, 45.62 45.1 C32.83 42.64, 22.6 37.81, 15.25 34.98 C7.9 32.16, 2.85 31.08, 1.53 28.15 C0.22 25.21, 2.2 20.28, 7.35 17.37 C12.5 14.45, 21.52 12.89, 32.45 10.65 C43.39 8.4, 57.92 5.65, 72.96 3.91 C88 2.16, 105.46 0.77, 122.69 0.19 C139.92 -0.39, 167.2 0.17, 176.33 0.41 C185.45 0.65, 177.78 1.42, 177.42 1.62" stroke="#1e1e1e" stroke-width="2" fill="none"></path></g><g transform="translate(2051.0523794265014 271.6904761904761) rotate(0 111.75 12.5)"><text x="0" y="17.52" font-family="Virgil, Segoe UI Emoji" font-size="20px" fill="#1e1e1e" text-anchor="start" style="white-space: pre;" direction="ltr" dominant-baseline="alphabetic">deleteSong(String item)</text></g><g stroke-linecap="round" transform="translate(1351.6666666666665 272.8571428571427) rotate(0 78.5 24.5)"><path d="M97.24 1.56 C108.84 1.89, 120.69 3.2, 129.71 5.5 C138.73 7.81, 147 11.73, 151.36 15.38 C155.72 19.02, 157.29 23.67, 155.86 27.37 C154.44 31.07, 149.47 34.61, 142.8 37.58 C136.13 40.55, 126.48 43.35, 115.83 45.19 C105.17 47.04, 91.08 48.4, 78.87 48.65 C66.67 48.9, 53.52 48.46, 42.6 46.68 C31.69 44.91, 20.27 41.16, 13.4 38.03 C6.52 34.9, 2.64 31.71, 1.35 27.89 C0.07 24.08, 1.59 18.74, 5.69 15.14 C9.79 11.54, 17.04 8.74, 25.95 6.32 C34.87 3.9, 45.23 1.46, 59.15 0.62 C73.08 -0.21, 99.42 0.63, 109.51 1.33 C119.59 2.02, 120.07 4.15, 119.67 4.8 M108.86 2.26 C120.1 3.43, 132.55 7.48, 140.43 10.11 C148.31 12.74, 153.87 14.43, 156.14 18.06 C158.42 21.69, 157.76 28.03, 154.07 31.87 C150.39 35.72, 142.56 38.66, 134.01 41.12 C125.46 43.58, 114.26 45.58, 102.77 46.63 C91.29 47.69, 77.16 47.89, 65.11 47.43 C53.06 46.98, 39.84 45.77, 30.46 43.9 C21.08 42.02, 14.01 39.52, 8.84 36.17 C3.68 32.82, -0.95 27.72, -0.53 23.8 C-0.11 19.87, 5.38 15.75, 11.34 12.61 C17.31 9.48, 25.11 6.99, 35.26 4.98 C45.41 2.97, 59.74 1.1, 72.25 0.56 C84.75 0.02, 104.28 1.46, 110.29 1.75 C116.31 2.03, 109.23 1.8, 108.35 2.27" stroke="none" stroke-width="0" fill="#b2f2bb"></path><path d="M116.06 3.83 C126.86 5.18, 136.83 8.08, 143.5 11.22 C150.17 14.35, 154.87 19.08, 156.07 22.64 C157.27 26.19, 155.06 29.28, 150.68 32.56 C146.3 35.85, 138.72 39.54, 129.77 42.33 C120.82 45.11, 108.79 48.18, 96.96 49.29 C85.13 50.4, 70.8 50.21, 58.8 48.98 C46.79 47.76, 33.89 44.55, 24.92 41.93 C15.96 39.32, 9 36.76, 4.98 33.27 C0.97 29.79, -0.73 24.71, 0.82 21.04 C2.36 17.37, 7.26 14.44, 14.27 11.25 C21.27 8.05, 32 3.76, 42.87 1.86 C53.75 -0.04, 66.01 -0.66, 79.52 -0.15 C93.04 0.37, 115.58 3.74, 123.96 4.94 C132.34 6.14, 130.68 6.88, 129.8 7.06 M100.64 0.05 C112.26 0.65, 124.69 2.6, 133.33 5.23 C141.97 7.85, 148.52 11.9, 152.47 15.81 C156.43 19.72, 158.71 24.91, 157.06 28.68 C155.41 32.44, 149.99 35.38, 142.58 38.38 C135.17 41.39, 123.71 44.85, 112.6 46.69 C101.48 48.54, 87.77 49.6, 75.89 49.47 C64.01 49.34, 51.67 47.99, 41.32 45.94 C30.97 43.89, 20.56 40.53, 13.81 37.18 C7.06 33.83, 2.15 29.69, 0.81 25.82 C-0.52 21.95, 1.44 17.36, 5.79 13.97 C10.15 10.59, 17.68 7.7, 26.94 5.5 C36.21 3.31, 49.26 1.36, 61.4 0.8 C73.55 0.24, 93.57 2.19, 99.79 2.12 C106.02 2.06, 98.91 0.2, 98.74 0.41" stroke="#1e1e1e" stroke-width="2" fill="none"></path></g><g transform="translate(1370.0238095238092 283.85714285714266) rotate(0 46.88333511352539 12.5)"><text x="0" y="17.52" font-family="Virgil, Segoe UI Emoji" font-size="20px" fill="#1e1e1e" text-anchor="start" style="white-space: pre;" direction="ltr" dominant-baseline="alphabetic">addSong()</text></g><g stroke-linecap="round"><g transform="translate(827.8950245810204 581.2142857142857) rotate(0 0.17448905140543047 72.59582014710533)"><path d="M0.74 0.81 C0.9 25.06, 0.19 120.93, 0.23 145.09 M-0.33 0.19 C-0.28 24.67, -0.93 122.64, -0.78 146.57" stroke="#1e1e1e" stroke-width="2" fill="none"></path></g><g transform="translate(827.8950245810204 581.2142857142857) rotate(0 0.17448905140543047 72.59582014710533)"><path d="M-9.3 123.07 C-5.99 128.44, -5.47 135.3, -0.78 146.57 M-9.3 123.07 C-6.83 132.2, -3.05 138.9, -0.78 146.57" stroke="#1e1e1e" stroke-width="2" fill="none"></path></g><g transform="translate(827.8950245810204 581.2142857142857) rotate(0 0.17448905140543047 72.59582014710533)"><path d="M7.8 123.09 C7.03 128.56, 3.46 135.42, -0.78 146.57 M7.8 123.09 C4.29 132.11, 2.08 138.79, -0.78 146.57" stroke="#1e1e1e" stroke-width="2" fill="none"></path></g></g><mask></mask><g stroke-linecap="round" transform="translate(731.7142857142853 728.4285714285713) rotate(0 92.5 30)"><path d="M112.95 -0.06 C125.48 0.39, 138.9 2.91, 149.27 5.85 C159.64 8.79, 169.35 13.61, 175.19 17.56 C181.04 21.51, 184.27 25.28, 184.32 29.56 C184.38 33.84, 181.04 39.17, 175.52 43.24 C170 47.32, 161.47 51.33, 151.18 54.02 C140.9 56.71, 126.86 58.4, 113.81 59.39 C100.77 60.38, 85.8 60.99, 72.91 59.98 C60.02 58.97, 47.08 56.24, 36.46 53.33 C25.84 50.43, 15.27 46.51, 9.2 42.56 C3.14 38.62, 0.09 33.8, 0.08 29.66 C0.06 25.52, 3.47 21.67, 9.12 17.73 C14.77 13.8, 23.81 8.98, 34 6.06 C44.18 3.13, 55.63 0.89, 70.24 0.18 C84.86 -0.53, 112.06 1.49, 121.68 1.83 C131.31 2.16, 128.79 1.92, 128 2.18 M52.36 4.39 C62.99 2.24, 78.18 0.44, 91.37 0.24 C104.57 0.04, 119.55 1.17, 131.54 3.18 C143.52 5.18, 154.67 8.74, 163.29 12.28 C171.91 15.83, 180.23 20.49, 183.26 24.43 C186.28 28.37, 184.43 31.86, 181.44 35.93 C178.45 40.01, 173.26 45.2, 165.31 48.88 C157.35 52.56, 145.66 56.14, 133.7 58.01 C121.75 59.88, 106.92 60, 93.56 60.09 C80.19 60.17, 65.48 60.47, 53.52 58.52 C41.55 56.58, 30.3 52.21, 21.78 48.42 C13.26 44.63, 5.62 39.68, 2.39 35.79 C-0.85 31.9, -0.55 29.19, 2.37 25.08 C5.28 20.96, 11.5 14.89, 19.88 11.09 C28.25 7.3, 47.41 3.42, 52.62 2.31 C57.83 1.19, 50.84 4.04, 51.15 4.41" stroke="#1e1e1e" stroke-width="2" fill="none"></path></g><g transform="translate(1753.4523809523803 869.1904761904761) rotate(0 60.42499923706055 12.5)"><text x="0" y="17.52" font-family="Virgil, Segoe UI Emoji" font-size="20px" fill="#1e1e1e" text-anchor="start" style="white-space: pre;" direction="ltr" dominant-baseline="alphabetic">View Playlist</text></g><g stroke-linecap="round" transform="translate(1722.4523809523803 851.1904761904761) rotate(0 92.5 30)"><path d="M62 1.94 C73.65 0, 89.75 -0.38, 102.94 0.08 C116.13 0.53, 129.8 2.37, 141.16 4.69 C152.52 7.01, 163.92 10.19, 171.12 13.98 C178.32 17.78, 182.79 22.98, 184.34 27.47 C185.9 31.96, 184.75 37.08, 180.47 40.91 C176.19 44.74, 168.18 47.65, 158.67 50.43 C149.16 53.22, 136.12 56.1, 123.41 57.63 C110.71 59.15, 95.79 59.89, 82.45 59.58 C69.12 59.27, 54.64 58.08, 43.4 55.76 C32.17 53.44, 22.33 49.42, 15.04 45.66 C7.75 41.9, 1.36 37.49, -0.34 33.21 C-2.03 28.94, 0.32 23.99, 4.87 20.03 C9.42 16.07, 15.62 12.69, 26.95 9.48 C38.28 6.27, 63.37 2.25, 72.85 0.78 C82.32 -0.7, 83.44 0.26, 83.79 0.63 M133.93 2.77 C146.13 3.85, 158.93 6.6, 166.89 10.27 C174.85 13.93, 179.06 20.03, 181.71 24.76 C184.37 29.49, 185.91 34.85, 182.83 38.67 C179.75 42.5, 171.65 44.37, 163.21 47.71 C154.77 51.05, 144.36 56.66, 132.19 58.73 C120.01 60.79, 103.5 60.49, 90.16 60.08 C76.82 59.68, 64.08 58.48, 52.17 56.3 C40.27 54.13, 27.08 50.2, 18.74 47.04 C10.4 43.87, 4.67 41.48, 2.16 37.31 C-0.35 33.15, 0.25 26.44, 3.67 22.04 C7.09 17.64, 14.42 13.97, 22.66 10.92 C30.9 7.87, 41.18 5.51, 53.09 3.74 C65.01 1.98, 80.85 0.45, 94.14 0.32 C107.42 0.2, 126.51 2.4, 132.81 3.01 C139.12 3.61, 132.63 3.28, 131.97 3.96" stroke="#1e1e1e" stroke-width="2" fill="none"></path></g><g stroke-linecap="round"><g transform="translate(1813.9523809523803 715.1904761904761) rotate(0 0.4927007313062859 67.50000018892837)"><path d="M-0.66 -0.75 C-0.53 21.9, 1.18 113.03, 1.43 135.57 M1.19 1.47 C1.15 23.8, 0.92 111.4, 0.72 133.75" stroke="#1e1e1e" stroke-width="2" fill="none"></path></g><g transform="translate(1813.9523809523803 715.1904761904761) rotate(0 0.4927007313062859 67.50000018892837)"><path d="M-7.71 110.21 C-6.04 119.34, -0.85 126.69, 0.72 133.75 M-7.71 110.21 C-5.57 116.02, -4.06 122.7, 0.72 133.75" stroke="#1e1e1e" stroke-width="2" fill="none"></path></g><g transform="translate(1813.9523809523803 715.1904761904761) rotate(0 0.4927007313062859 67.50000018892837)"><path d="M9.4 110.3 C5 119.31, 4.13 126.62, 0.72 133.75 M9.4 110.3 C7.12 116.07, 4.22 122.73, 0.72 133.75" stroke="#1e1e1e" stroke-width="2" fill="none"></path></g></g><mask></mask><g stroke-linecap="round" transform="translate(2019.4523809523803 385.6904761904761) rotate(0 130.5 23)"><path d="M77.07 2.23 C90.64 0.6, 110.24 0.02, 126.79 -0.03 C143.34 -0.08, 160.97 0.93, 176.36 1.94 C191.75 2.95, 207.11 4.16, 219.11 6.03 C231.11 7.89, 241.48 10.49, 248.35 13.11 C255.21 15.73, 259.4 18.61, 260.29 21.76 C261.18 24.9, 259.41 29.26, 253.67 31.97 C247.94 34.67, 237.55 35.96, 225.91 37.99 C214.26 40.02, 198.98 42.88, 183.8 44.13 C168.62 45.38, 151.28 45.56, 134.84 45.48 C118.4 45.41, 100.59 44.68, 85.16 43.7 C69.74 42.71, 54.67 41.41, 42.28 39.57 C29.9 37.73, 17.97 35.3, 10.85 32.65 C3.73 30, 0.14 26.78, -0.44 23.68 C-1.03 20.59, 1.43 16.64, 7.34 14.07 C13.24 11.49, 21.78 10.19, 35.01 8.22 C48.24 6.26, 76.07 3.42, 86.71 2.26 C97.34 1.1, 98 1.06, 98.84 1.27 M153.42 -1.03 C169.56 -0.99, 188.4 1.31, 202.56 2.95 C216.72 4.59, 228.95 6.44, 238.38 8.81 C247.81 11.17, 255.76 14.16, 259.13 17.14 C262.51 20.13, 261.9 23.57, 258.63 26.7 C255.37 29.83, 248.68 33.21, 239.55 35.94 C230.43 38.67, 217.75 41.62, 203.87 43.08 C190 44.53, 172.64 44.41, 156.3 44.67 C139.97 44.92, 121.97 44.79, 105.88 44.6 C89.78 44.42, 73.32 45.01, 59.74 43.54 C46.16 42.07, 33.94 38.28, 24.38 35.78 C14.82 33.28, 5.94 31.56, 2.38 28.55 C-1.18 25.53, -0.19 20.81, 3.03 17.69 C6.24 14.58, 12.65 12.12, 21.68 9.88 C30.7 7.63, 43.42 5.95, 57.16 4.21 C70.9 2.47, 88.1 0.2, 104.1 -0.57 C120.09 -1.34, 144.79 -0.59, 153.12 -0.4 C161.44 -0.22, 154.37 0.02, 154.05 0.52" stroke="#1e1e1e" stroke-width="2" fill="none"></path></g><g transform="translate(2062.0523794265014 394.1904761904761) rotate(0 82.96666717529297 12.5)"><text x="0" y="17.52" font-family="Virgil, Segoe UI Emoji" font-size="20px" fill="#1e1e1e" text-anchor="start" style="white-space: pre;" direction="ltr" dominant-baseline="alphabetic">randomPlayback()</text></g><g stroke-linecap="round"><g transform="translate(1928.9523809523803 284.1904761904761) rotate(0 42 1)"><path d="M-0.64 -0.58 C13.35 -0.12, 69.55 2.16, 83.75 2.53 M1.22 1.72 C15.05 1.84, 68.86 0.52, 82.67 0.69" stroke="#1e1e1e" stroke-width="2" fill="none"></path></g></g><mask></mask><g stroke-linecap="round"><g transform="translate(1924.9523809523803 408.1904761904761) rotate(0 47.5 -0.5)"><path d="M0.87 -0.81 C16.74 -1.13, 79.38 -1.22, 95.19 -1.24 M-0.13 1.38 C15.6 1.19, 78.43 0.34, 94.35 0.17" stroke="#1e1e1e" stroke-width="2" fill="none"></path></g></g><mask></mask><g stroke-linecap="round" transform="translate(2029.9009616995295 516.1176573357467) rotate(359.01223960036015 119.05141925285079 26.072818854729455)"><path d="M131.83 -0.54 C147.41 -0.47, 165.44 2.03, 179.51 3.78 C193.59 5.53, 206.78 7.08, 216.28 9.94 C225.78 12.79, 233.25 17.29, 236.53 20.91 C239.8 24.52, 239.41 28.25, 235.93 31.64 C232.45 35.04, 225.49 38.5, 215.64 41.29 C205.79 44.09, 191.16 46.77, 176.85 48.42 C162.54 50.08, 145.73 50.86, 129.79 51.23 C113.84 51.59, 96.41 51.78, 81.2 50.63 C65.99 49.48, 50.56 46.83, 38.53 44.33 C26.51 41.82, 15.45 38.81, 9.06 35.61 C2.67 32.41, -0.17 28.48, 0.19 25.13 C0.54 21.79, 4.47 18.56, 11.2 15.56 C17.93 12.56, 28.63 9.69, 40.56 7.15 C52.5 4.6, 66.88 1.6, 82.82 0.31 C98.75 -0.98, 127.01 -0.59, 136.15 -0.59 C145.29 -0.6, 138.16 -0.25, 137.66 0.27 M176.29 4.02 C190.63 5.1, 203.45 7.41, 213.29 10.25 C223.13 13.1, 231.7 17.67, 235.32 21.09 C238.94 24.5, 238.07 27.65, 235.02 30.75 C231.96 33.84, 225.96 36.75, 216.98 39.66 C208 42.57, 194.96 46.17, 181.15 48.19 C167.34 50.22, 149.91 51.55, 134.12 51.81 C118.34 52.06, 101.78 50.71, 86.43 49.71 C71.07 48.72, 54.22 48.08, 41.99 45.83 C29.75 43.58, 19.92 39.22, 13.02 36.2 C6.12 33.17, 1.08 31.02, 0.59 27.66 C0.09 24.3, 4.21 19.37, 10.04 16.05 C15.86 12.73, 23.93 10.29, 35.54 7.73 C47.14 5.16, 64.4 1.94, 79.67 0.67 C94.94 -0.6, 111.36 -0.23, 127.15 0.1 C142.95 0.44, 166.61 2.23, 174.45 2.69 C182.29 3.15, 174.85 2.55, 174.2 2.86" stroke="#1e1e1e" stroke-width="2" fill="none"></path></g><g transform="translate(2059.202380952381 527.6904761904761) rotate(0 93.55833435058594 12.5)"><text x="0" y="17.52" font-family="Virgil, Segoe UI Emoji" font-size="20px" fill="#1e1e1e" text-anchor="start" style="white-space: pre;" direction="ltr" dominant-baseline="alphabetic">Search(String song)</text></g><g stroke-linecap="round" transform="translate(2024.4523809523803 646.1904761904761) rotate(0 140.5 29)"><path d="M128.49 0.37 C144.45 -0.32, 163.47 0.13, 179.79 1.16 C196.1 2.19, 212.84 4.57, 226.38 6.57 C239.93 8.57, 252.39 10.21, 261.05 13.14 C269.7 16.07, 275.31 20.61, 278.33 24.16 C281.35 27.7, 282.2 31.1, 279.14 34.39 C276.08 37.67, 269.03 40.82, 259.97 43.87 C250.91 46.92, 238.51 50.54, 224.78 52.69 C211.06 54.83, 193.78 55.77, 177.62 56.74 C161.47 57.71, 144.42 58.85, 127.84 58.5 C111.26 58.16, 93.53 56.29, 78.17 54.67 C62.81 53.06, 47.08 51.44, 35.7 48.81 C24.32 46.18, 15.89 42.06, 9.88 38.87 C3.87 35.68, -0.34 33.1, -0.34 29.67 C-0.33 26.25, 3.67 21.83, 9.92 18.33 C16.18 14.82, 25.72 11.28, 37.19 8.65 C48.67 6.02, 63.12 3.92, 78.76 2.55 C94.4 1.18, 121.51 0.78, 131.05 0.42 C140.59 0.05, 135.56 -0.22, 135.99 0.35 M155.3 -1.15 C171.75 -1.21, 189.54 0.92, 204.48 2.6 C219.42 4.27, 233.72 6.3, 244.93 8.92 C256.15 11.54, 265.68 14.85, 271.76 18.3 C277.83 21.75, 281.43 25.97, 281.4 29.63 C281.36 33.29, 277.58 37.28, 271.55 40.28 C265.51 43.28, 256.48 45.16, 245.2 47.62 C233.91 50.09, 219.06 53.24, 203.85 55.08 C188.64 56.91, 170.83 58.51, 153.91 58.65 C136.99 58.79, 118.56 56.79, 102.33 55.92 C86.11 55.05, 70.28 55.15, 56.58 53.41 C42.87 51.67, 29.29 48.79, 20.09 45.47 C10.88 42.16, 4.09 37.3, 1.34 33.52 C-1.42 29.74, 0.07 25.97, 3.58 22.79 C7.09 19.62, 13.48 17.37, 22.41 14.47 C31.34 11.57, 43.7 7.6, 57.16 5.39 C70.61 3.17, 86.89 1.91, 103.13 1.2 C119.38 0.48, 146.19 1.34, 154.65 1.08 C163.1 0.82, 154.4 -0.87, 153.88 -0.36" stroke="#1e1e1e" stroke-width="2" fill="none"></path></g><g transform="translate(2047.4523809523803 663.1904761904761) rotate(0 122.08333587646484 12.5)"><text x="0" y="17.52" font-family="Virgil, Segoe UI Emoji" font-size="20px" fill="#1e1e1e" text-anchor="start" style="white-space: pre;" direction="ltr" dominant-baseline="alphabetic">SortBy(Comparator item)</text></g><g stroke-linecap="round"><g transform="translate(1929.9523809523803 542.1904761904761) rotate(0 50.5 -0.5)"><path d="M-1.14 0.49 C15.59 0.26, 83.35 -1.32, 100.57 -1.41 M0.47 -0.29 C16.97 -0.36, 82.47 0.17, 99.4 -0.09" stroke="#1e1e1e" stroke-width="2" fill="none"></path></g></g><mask></mask><g stroke-linecap="round"><g transform="translate(1926.9523809523803 676.1904761904761) rotate(0 49 0.5)"><path d="M0.56 -0.73 C16.84 -0.61, 81.05 -0.33, 97.25 0.06 M-0.6 1.5 C16.1 1.8, 83.32 1.42, 99.58 1.1" stroke="#1e1e1e" stroke-width="2" fill="none"></path></g></g><mask></mask><g stroke-linecap="round" transform="translate(10 10) rotate(0 655.2142857142858 440.5)"><path d="M32 0 C403.56 -0.3, 774.17 -0.82, 1278.43 0 M32 0 C384.04 1.82, 736.77 1.88, 1278.43 0 M1278.43 0 C1298.19 -0.9, 1310.16 9.21, 1310.43 32 M1278.43 0 C1301.98 1.73, 1310.24 10.88, 1310.43 32 M1310.43 32 C1309.21 356.84, 1308.56 683.15, 1310.43 849 M1310.43 32 C1310.22 358.24, 1309.71 684.25, 1310.43 849 M1310.43 849 C1309.62 870.32, 1298.65 882.18, 1278.43 881 M1310.43 849 C1308.89 868.23, 1301.68 878.81, 1278.43 881 M1278.43 881 C986.9 880.95, 695.81 881.36, 32 881 M1278.43 881 C922.74 879.89, 566.64 879.96, 32 881 M32 881 C12.02 879.8, -0.42 869.47, 0 849 M32 881 C11.96 881.68, 0.85 869.16, 0 849 M0 849 C1.98 572.53, 2.27 297.68, 0 32 M0 849 C-3.17 579.39, -2.47 310.15, 0 32 M0 32 C-1.69 10.78, 10.33 -0.44, 32 0 M0 32 C2.29 9.64, 11.84 -1.27, 32 0" stroke="#1e1e1e" stroke-width="2" fill="none"></path></g><g transform="translate(308.57142857142844 63.85714285714289) rotate(0 352.5242837088449 24.64285714285714)"><text x="0" y="34.539428571428566" font-family="Virgil, Segoe UI Emoji" font-size="39.42857142857142px" fill="#1e1e1e" text-anchor="start" style="white-space: pre;" direction="ltr" dominant-baseline="alphabetic">is performed when loading the data </text></g><g stroke-linecap="round" transform="translate(1573.095238095238 26.47619047619054) rotate(0 397.1428571428569 458.57142857142856)"><path d="M32 0 C266.57 -2.62, 500.77 -2.04, 762.29 0 M32 0 C221.31 0.82, 411.15 0.36, 762.29 0 M762.29 0 C784.07 0.71, 793.09 8.67, 794.29 32 M762.29 0 C784.2 -1.54, 793.34 9.84, 794.29 32 M794.29 32 C792.51 273.8, 792.75 517.1, 794.29 885.14 M794.29 32 C790.67 257.95, 790.73 484.24, 794.29 885.14 M794.29 885.14 C795.11 905.79, 783.11 917.35, 762.29 917.14 M794.29 885.14 C792.33 905.17, 783.29 915.25, 762.29 917.14 M762.29 917.14 C567.86 918.8, 374.09 918.9, 32 917.14 M762.29 917.14 C576.64 914.52, 391.05 914.71, 32 917.14 M32 917.14 C9.38 916.47, -0.96 907.72, 0 885.14 M32 917.14 C12.78 915.87, 1.95 905.91, 0 885.14 M0 885.14 C-2.02 702.25, -2.59 521, 0 32 M0 885.14 C0.19 701.39, 0.57 517.02, 0 32 M0 32 C-0.75 9.98, 10.19 1.78, 32 0 M0 32 C0.63 8.47, 8.78 -0.78, 32 0" stroke="#1e1e1e" stroke-width="2" fill="none"></path></g><g transform="translate(1647.7138115292496 61.833333333333314) rotate(0 319.3166809082031 24.64285714285714)"><text x="0" y="34.539428571428566" font-family="Virgil, Segoe UI Emoji" font-size="39.42857142857142px" fill="#1e1e1e" text-anchor="start" style="white-space: pre;" direction="ltr" dominant-baseline="alphabetic">is performed when adding songs  </text></g><g stroke-linecap="round"><g transform="translate(1507.9704343525018 290.4988834441241) rotate(0 100.70151158719068 125.625)"><path d="M0.41 -0.08 C33.84 41.95, 167.97 209.71, 201.61 251.79 M-0.83 -1.16 C32.36 40.54, 166.98 207.98, 200.78 249.95" stroke="#1e1e1e" stroke-width="2" fill="none"></path></g><g transform="translate(1507.9704343525018 290.4988834441241) rotate(0 100.70151158719068 125.625)"><path d="M179.39 237 C187.5 242.29, 196.8 248.38, 200.78 249.95 M179.39 237 C187.45 242.37, 196.95 247.78, 200.78 249.95" stroke="#1e1e1e" stroke-width="2" fill="none"></path></g><g transform="translate(1507.9704343525018 290.4988834441241) rotate(0 100.70151158719068 125.625)"><path d="M192.72 226.29 C195.64 235.77, 199.78 246, 200.78 249.95 M192.72 226.29 C195.55 235.88, 199.78 245.53, 200.78 249.95" stroke="#1e1e1e" stroke-width="2" fill="none"></path></g></g><mask></mask><g stroke-linecap="round"><g transform="translate(1508.1132914953587 296.7845977298383) rotate(0 98.20151158719068 190.125)"><path d="M1.15 0.52 C33.77 63.66, 163.67 316.3, 196.25 379.7 M0.29 -0.26 C32.69 62.97, 162.6 317.74, 195.23 380.95" stroke="#1e1e1e" stroke-width="2" fill="none"></path></g><g transform="translate(1508.1132914953587 296.7845977298383) rotate(0 98.20151158719068 190.125)"><path d="M176.9 363.94 C184.21 369.38, 188.75 375.94, 195.23 380.95 M176.9 363.94 C184.21 370.81, 191.03 376.09, 195.23 380.95" stroke="#1e1e1e" stroke-width="2" fill="none"></path></g><g transform="translate(1508.1132914953587 296.7845977298383) rotate(0 98.20151158719068 190.125)"><path d="M192.12 356.14 C194.23 364.42, 193.52 373.66, 195.23 380.95 M192.12 356.14 C194.02 365.8, 195.39 373.88, 195.23 380.95" stroke="#1e1e1e" stroke-width="2" fill="none"></path></g></g><mask></mask></svg>